<?xml version="1.0" encoding="UTF-8"?>
<svg version="1.1" xmlns="http://www.w3.org/2000/svg" width="1028" height="1028">
<path d="M0 0 C2.30130185 1.01289915 3.66908289 2.26277927 5.44659086 4.04364526 C6.49833073 5.08642541 6.49833073 5.08642541 7.57131787 6.15027183 C8.71528889 7.30735063 8.71528889 7.30735063 9.88237043 8.48780477 C10.69841505 9.30128611 11.51445967 10.11476746 12.35523292 10.95289975 C14.62059191 13.21416601 16.87907752 15.48204908 19.13486024 17.75286126 C21.56838362 20.19932284 24.01055283 22.63712632 26.45169111 25.07598531 C30.68053176 29.30325182 34.9038387 33.53598265 39.12345167 37.77245938 C45.22432935 43.89770346 51.33346021 50.01466077 57.44464635 56.12961804 C67.35906538 66.05060525 77.26676444 75.97827546 87.17027327 85.91015279 C96.79143518 95.55884576 106.41573848 105.20438731 116.0442967 114.84569966 C116.93433854 115.73692376 116.93433854 115.73692376 117.84236103 116.64615238 C120.81905705 119.62676348 123.79581508 122.60731264 126.77260395 125.58783102 C151.47353821 150.31987263 176.16358176 175.06276199 200.8465428 199.81274068 C199.53982223 203.61807406 198.04062636 205.99345257 195.20256361 208.83046603 C194.43897429 209.60105345 193.67538497 210.37164088 192.88865658 211.16557943 C192.04428996 212.00235086 191.19992334 212.83912229 190.32996985 213.70125043 C189.4335325 214.6014489 188.53709516 215.50164738 187.61349305 216.42912459 C185.11534707 218.93732405 182.60790611 221.4360494 180.09890231 223.9333811 C177.374561 226.6483325 174.65891647 229.37195913 171.94217261 232.09450912 C167.17619548 236.86825578 162.4046516 241.63638132 157.6294541 246.40090406 C150.52850081 253.48602726 143.43613383 260.57969875 136.34550144 267.675149 C124.41658679 279.61166072 112.48061831 291.54109549 100.54056975 303.46646916 C88.71036534 315.28215079 76.88304587 327.10070724 65.05965086 338.92320287 C64.3247992 339.65799344 63.58994753 340.39278401 62.83282764 341.14984096 C59.84996776 344.13247132 56.86712905 347.11512286 53.8843182 350.09780226 C26.68501431 377.29589406 -0.52153111 404.48673018 -27.73255876 431.67309224 C-53.42388844 457.34113869 -79.11066313 483.01373152 -104.79212908 508.69164693 C-105.58294521 509.48235154 -106.37376134 510.27305616 -107.18854159 511.08772152 C-110.37678839 514.27551946 -113.56503175 517.46332084 -116.75327492 520.65112242 C-118.34210711 522.23973423 -119.93093977 523.8283456 -121.51977288 525.4169565 C-123.10469594 527.00165821 -124.68961772 528.58636121 -126.27453819 530.17106551 C-151.5155415 555.40855328 -176.76051734 580.64206692 -202.00617637 605.87489735 C-209.39904245 613.26404451 -216.79168141 620.65341868 -224.18382076 628.04329288 C-239.73380618 643.58846845 -255.2849285 659.13250196 -270.84063172 674.67195616 C-277.27513124 681.09980679 -283.70887843 687.52840558 -290.14038614 693.95924985 C-295.47261683 699.29092835 -300.80649452 704.62095181 -306.14263229 709.94872008 C-308.82891391 712.63088361 -311.51441474 715.3138161 -314.19773727 717.99894027 C-317.08974641 720.89284614 -319.9855977 723.78287677 -322.88183741 726.67254865 C-323.71215703 727.50463774 -324.54247666 728.33672684 -325.39795748 729.19403076 C-329.63357395 733.41324045 -333.94256923 737.47786431 -338.48524514 741.36580173 C-340.6995231 743.28637592 -342.74880343 745.33808787 -344.78675798 747.44360005 C-346.00940859 748.70025472 -346.00940859 748.70025472 -347.2567592 749.98229634 C-348.11212267 750.86478047 -348.96748613 751.74726461 -349.8487697 752.65649068 C-351.71763507 754.56236062 -353.58736474 756.46734736 -355.4581447 758.37133443 C-358.37041715 761.33725688 -361.27731157 764.30789129 -364.16517595 767.29760396 C-381.73186335 785.46502433 -393.68440311 794.2168609 -419.29470591 794.86710703 C-424.54114394 794.95137808 -429.78738572 794.93851619 -435.03431658 794.92626607 C-436.76079259 794.92598316 -438.48726873 794.92614395 -440.21374468 794.92670858 C-444.84695778 794.92699251 -449.48014437 794.92116178 -454.11335138 794.91413462 C-458.9753107 794.90783316 -463.8372708 794.90729195 -468.69923357 794.90610921 C-477.88206683 794.90301575 -487.06488802 794.89482943 -496.24771599 794.88475972 C-506.71221518 794.87353653 -517.17671498 794.86807257 -527.6412187 794.86306429 C-549.14530491 794.85264491 -570.64938029 794.83508437 -592.1534572 794.81274068 C-594.6322895 785.71562002 -594.44338766 776.59383187 -594.42811541 767.25268209 C-594.43246892 765.48744655 -594.43765419 763.7222129 -594.44360308 761.95698201 C-594.45693549 757.18623796 -594.45757819 752.41557341 -594.45503978 747.64481437 C-594.45396616 743.65151479 -594.45886339 739.65823104 -594.4636452 735.66493487 C-594.47472045 726.23860537 -594.47518894 716.81231572 -594.46913103 707.38598287 C-594.46309217 697.68501653 -594.47540461 687.98419526 -594.4967011 678.28325367 C-594.5143552 669.93218114 -594.52031246 661.58115463 -594.51706336 653.23006415 C-594.51525645 648.25210618 -594.51782731 643.27425172 -594.5317779 638.29631078 C-594.54441379 633.61271786 -594.54235798 628.92935004 -594.52936701 624.24576032 C-594.52701419 622.53503056 -594.52968903 620.82428467 -594.53799013 619.11357343 C-594.62182815 600.48062432 -591.42905443 588.8117205 -578.10453133 575.36115384 C-577.18610341 574.44917772 -576.26767548 573.5372016 -575.32141642 572.59758985 C-574.32073437 571.5931655 -573.32070854 570.58808703 -572.32127539 569.58241999 C-569.57923497 566.82707682 -566.82798814 564.08109288 -564.07510773 561.33658582 C-561.07953182 558.34682607 -558.09266041 555.34839079 -555.10465351 552.35106992 C-549.8687733 547.10128383 -544.62733271 541.85710127 -539.38219217 536.61656797 C-531.58281385 528.82402274 -523.79200373 521.02295299 -516.0028105 513.22022873 C-501.28421553 498.47672296 -486.55543337 483.74342249 -471.82343104 469.01331524 C-460.45255828 457.64381501 -449.08428213 446.27172446 -437.71783785 434.89779698 C-436.08544751 433.26435632 -434.45305582 431.63091702 -432.82066278 429.99747906 C-432.01037643 429.18667336 -431.20009007 428.37586766 -430.36524959 427.54049209 C-429.55349748 426.72821984 -428.74174537 425.91594759 -427.90539471 425.07906103 C-427.09230346 424.26544578 -426.27921221 423.45183054 -425.44148183 422.61356029 C-402.57411577 399.73161172 -379.70360131 376.85281388 -356.82663492 353.98046338 C-355.96422436 353.11822477 -355.1018138 352.25598617 -354.21326958 351.36761912 C-349.84208004 346.99731849 -345.47086255 342.62704581 -341.09963533 338.25678287 C-340.23147033 337.38880891 -339.36330533 336.52083494 -338.4688323 335.62655874 C-336.71319448 333.871308 -334.95755504 332.11605889 -333.20191398 330.36081139 C-305.86137811 303.02625051 -278.53158376 275.6809904 -251.21009783 248.32738912 C-220.52700444 217.60825969 -189.83559623 186.89747189 -159.13200203 156.19883203 C-155.86178998 152.92908998 -152.59160781 149.65931805 -149.32144503 146.38952672 C-148.51621699 145.58440107 -147.71098895 144.77927542 -146.88136007 143.94975202 C-134.70279596 131.77238494 -122.53084351 119.58843507 -110.36220888 107.40114629 C-96.53557057 93.55332266 -82.70034706 79.71414504 -68.85339525 65.88663225 C-61.09665508 58.14025712 -53.3469752 50.3869698 -45.6070684 42.62377454 C-40.44552641 37.44807457 -35.2750607 32.28140871 -30.09704157 27.12219348 C-27.14117381 24.17654441 -24.18951948 21.22697161 -21.24858018 18.26641141 C-18.57823833 15.5784138 -15.89686322 12.90198622 -13.2058391 10.23469872 C-11.77434954 8.80982657 -10.35523084 7.37255982 -8.93651191 5.93497169 C-8.09337786 5.10384278 -7.25024381 4.27271387 -6.38156024 3.41639924 C-5.65603297 2.69076328 -4.9305057 1.96512733 -4.18299276 1.2175024 C-2.1534572 -0.18725932 -2.1534572 -0.18725932 0 0 Z " fill="#FFFFFF" transform="translate(623.1534572020173,203.1872593201697)"/>
<path d="M0 0 C2.25569152 1.7548125 4.42376656 3.60106694 6.58415222 5.47142029 C7.19527648 5.99857177 7.80640074 6.52572326 8.43604392 7.06884903 C14.63636688 12.47086122 20.47793364 18.19544793 26.27856445 24.01977539 C27.4281645 25.16665474 28.5781872 26.31311055 29.72859192 27.45918274 C32.8072844 30.52888011 35.87976498 33.60472109 38.95076394 36.68211293 C42.18926564 39.92573863 45.43271307 43.16441341 48.67533875 46.40391541 C54.11275666 51.83771365 59.54598712 57.27567199 64.97680664 62.71606445 C71.23064372 68.98079867 77.49167454 75.23827406 83.75645667 81.49206167 C89.16690858 86.89340307 94.57341041 92.29867509 99.97669953 97.70718187 C103.19015254 100.92373186 106.40489133 104.13896558 109.62322426 107.35063362 C112.64763315 110.36921396 115.66701047 113.39274278 118.68276787 116.41996574 C119.7818712 117.52168575 120.88262798 118.62175947 121.98526764 119.71994019 C139.79675551 137.46609401 139.79675551 137.46609401 144.9375 148.1875 C145.75541016 149.84845703 145.75541016 149.84845703 146.58984375 151.54296875 C151.58518155 163.78915698 151.75951798 177.53838103 147.32421875 190.00390625 C143.90295015 197.74465261 139.41024248 204.12893634 133.1875 209.85546875 C131.27820812 211.72725668 129.56319396 213.63871604 127.82383728 215.66539001 C124.2444232 219.7719159 120.48799684 223.65350441 116.63110352 227.49829102 C115.58082977 228.55119324 115.58082977 228.55119324 114.50933838 229.62536621 C112.21835156 231.92071643 109.92377101 234.21243364 107.62890625 236.50390625 C106.02125199 238.11223513 104.41374611 239.72071236 102.80638123 241.32933044 C99.44668055 244.69050063 96.08519028 248.04986786 92.72241211 251.40795898 C88.42763224 255.69704205 84.13735791 259.99059939 79.84842014 264.28552341 C76.53269137 267.60487798 73.21456935 270.92183197 69.89573479 274.23808098 C68.3134734 275.81967868 66.73194511 277.40201016 65.15118599 278.98510933 C62.93597547 281.20287961 60.71754968 283.41738504 58.49829102 285.63110352 C57.85544662 286.27597214 57.21260223 286.92084076 56.55027771 287.58525085 C52.77039525 291.34780548 48.87881675 294.9221608 44.82818508 298.39211941 C42.08613599 300.8037393 39.54943398 303.38683017 37 306 C33.88799201 304.61617294 31.77007207 303.01916193 29.36871719 300.61481285 C28.66059049 299.91066824 27.95246378 299.20652364 27.22287869 298.48104131 C26.45244945 297.70478639 25.68202021 296.92853146 24.88824463 296.12875366 C23.65192704 294.89499935 23.65192704 294.89499935 22.39063334 293.63632071 C20.10431077 291.35272453 17.82253662 289.06469315 15.54259658 286.77472782 C13.08272936 284.30622912 10.61709061 281.8435073 8.15214539 279.38008118 C3.88238651 275.11137134 -0.38369326 270.83901295 -4.64730072 266.56415939 C-10.81177596 260.38343474 -16.981762 254.20823568 -23.15310994 248.03437419 C-33.16539691 238.01770924 -43.17320879 227.99658547 -53.17822266 217.97265625 C-62.8975598 208.23496297 -72.61899389 198.49937107 -82.34326172 188.76660156 C-82.94259694 188.1667409 -83.54193215 187.56688023 -84.15942904 186.94884197 C-87.16611042 183.93955054 -90.17283313 180.93030041 -93.1795764 177.92107081 C-118.12613009 152.95378142 -143.065428 127.97925517 -168 103 C-163.9404116 98.89680563 -159.71606326 95.26828434 -155.20703125 91.671875 C-145.25094069 83.47808478 -136.25842955 74.34645895 -127.20402718 65.18749619 C-124.73800738 62.6945233 -122.26736993 60.20621468 -119.79527283 57.7192688 C-112.77329883 50.65485005 -105.75412418 43.58772445 -98.7512207 36.50439453 C-94.44958543 32.1540311 -90.13806999 27.8136717 -85.82009697 23.47952652 C-84.18709462 21.83668411 -82.55773932 20.19020748 -80.93226814 18.53991318 C-61.75189302 -0.92698242 -61.75189302 -0.92698242 -48.1875 -5.875 C-47.14980469 -6.26429687 -46.11210938 -6.65359375 -45.04296875 -7.0546875 C-29.53268871 -11.87302867 -13.34833221 -8.90953594 0 0 Z " fill="#FFFFFF" transform="translate(848,38)"/>
</svg>
